<svg xmlns="http://www.w3.org/2000/svg" viewBox="0 0 100 100">
  <!-- Yellow die face: two gas masks side by side (scaled to 55%) -->
  <rect width="100" height="100" rx="9" fill="#f9a825"/>
  <!-- Left mask centered at (25, 50), scale 0.55 -->
  <g transform="translate(25,50) scale(0.55)">
    <path d="M 0,-32 C 26,-32 36,-14 32,6 C 28,22 16,24 0,24 C -16,24 -28,22 -32,6 C -36,-14 -26,-32 0,-32 Z" fill="#1a1a1a"/>
    <circle cx="-13" cy="-8" r="9" fill="#f9a825"/>
    <circle cx="13" cy="-8" r="9" fill="#f9a825"/>
    <circle cx="0" cy="33" r="10" fill="#1a1a1a"/>
  </g>
  <!-- Right mask centered at (75, 50), scale 0.55 -->
  <g transform="translate(75,50) scale(0.55)">
    <path d="M 0,-32 C 26,-32 36,-14 32,6 C 28,22 16,24 0,24 C -16,24 -28,22 -32,6 C -36,-14 -26,-32 0,-32 Z" fill="#1a1a1a"/>
    <circle cx="-13" cy="-8" r="9" fill="#f9a825"/>
    <circle cx="13" cy="-8" r="9" fill="#f9a825"/>
    <circle cx="0" cy="33" r="10" fill="#1a1a1a"/>
  </g>
</svg>

